<svg width="171" height="26" viewBox="0 0 171 26" fill="none" xmlns="http://www.w3.org/2000/svg">
<path d="M9.2626 26C4.70094 26 0.429688 24.371 0.429688 18.9529V17.076H6.94635L6.96052 19.4345C6.96052 20.7589 7.88135 21.6301 9.39719 21.6301C11.0122 21.6301 11.5576 20.8014 11.7559 19.9869C11.9185 19.4013 11.9061 18.7809 11.7205 18.2021C10.4668 15.0575 1.83219 13.6268 0.776771 8.66195C0.546025 7.58262 0.52918 6.46853 0.727188 5.38273C1.36469 1.41651 4.89219 0 9.21302 0C12.6484 0 17.4014 0.80741 17.4014 6.09807V7.81204H11.3522V6.30346C11.3522 4.97903 10.5022 4.10787 9.08552 4.10787C7.5626 4.10787 7.03844 4.97194 6.86844 5.75102C6.78421 6.17232 6.78904 6.60656 6.8826 7.02588C7.57677 9.86598 16.7993 11.3816 17.8264 16.4669C17.9255 16.9768 18.138 18.3509 17.8405 20.4473C17.2668 24.5056 13.6614 26 9.26969 26H9.2626ZM88.2701 25.8725C83.7509 25.8725 79.5293 24.2648 79.5293 18.9033V17.0406H85.9822V19.3637C85.9822 20.6739 86.8959 21.5592 88.3976 21.5592C90.0055 21.5592 90.5439 20.7306 90.7422 19.9303C90.9027 19.3492 90.8904 18.7339 90.7068 18.1596C89.4672 15.0433 80.9176 13.6197 79.8764 8.69736C79.6431 7.63047 79.6239 6.52793 79.8197 5.45355C80.4572 1.52983 83.9634 0.120405 88.2347 0.120405C91.6347 0.120405 96.3309 0.934897 96.3309 6.17598V7.87578H90.3384V6.37429C90.3384 5.06402 89.5168 4.19994 88.1072 4.19994C86.6055 4.19994 86.0601 5.04985 85.8901 5.82893C85.8168 6.24251 85.8289 6.66671 85.9255 7.07546C86.6055 9.89431 95.7359 11.3958 96.7559 16.4244C96.8622 16.9414 97.0676 18.3013 96.7772 20.3765C96.2034 24.3923 92.6264 25.8725 88.2772 25.8725H88.2701ZM111.107 25.7804C106.644 25.7804 103.046 24.2931 102.621 19.7603C102.581 19.2348 102.562 18.7079 102.564 18.1809V0.750749H108.706V18.7262C108.706 19.0379 108.706 19.3849 108.762 19.647C108.883 20.249 109.414 21.4034 111.107 21.4034C112.793 21.4034 113.31 20.249 113.43 19.647C113.477 19.3424 113.496 19.0342 113.487 18.7262V0.750749H119.628V18.1809C119.629 18.7102 119.61 19.2394 119.571 19.7674C119.146 24.3002 115.576 25.7804 111.107 25.7804ZM161.795 25.5184C157.488 25.5184 153.663 23.9531 153.26 19.5266C153.202 18.9924 153.169 18.456 153.161 17.9188V7.7058C153.161 7.27377 153.224 6.50177 153.274 6.09807C153.819 1.55816 157.488 0.106241 161.795 0.106241C166.102 0.106241 169.87 1.54399 170.316 6.09807C170.394 6.87715 170.373 7.7058 170.373 7.7058V8.51321H164.253V7.14628C164.253 7.14628 164.253 6.57968 164.182 6.22555C164.069 5.69436 163.601 4.45492 161.738 4.45492C159.975 4.45492 159.458 5.63062 159.33 6.22555C159.259 6.60375 159.226 6.98812 159.231 7.37293V18.4713C159.227 18.7791 159.246 19.0869 159.288 19.392C159.401 20.0436 160.024 21.1626 161.781 21.1626C163.538 21.1626 164.14 20.0436 164.253 19.392C164.3 19.0874 164.319 18.7793 164.31 18.4713V14.9512H161.816V11.41H170.43V17.9259C170.43 18.3792 170.408 18.7192 170.338 19.5266C169.934 23.9531 166.102 25.5184 161.795 25.5184ZM21.9347 25.058L26.4397 0.750749H37.2489L41.7326 25.058H35.2018L31.9718 3.003L31.8301 3.01716L28.5009 25.058H21.9347ZM46.5847 25.058L47.1089 0.750749H57.0255L60.0076 19.3424H60.1564L63.1455 0.750749H73.0551L73.5864 25.058H67.5159L67.3743 3.22255H67.2255L63.1668 25.058H57.0043L52.9455 3.22964H52.818L52.6693 25.0651L46.5847 25.058ZM126.4 24.8031V0.750749H135.417L141.013 19.824H141.14L140.807 0.750749H146.835V24.8031H138.186L132.173 5.06402H132.045L132.378 24.8031H126.4Z" fill="#202020"/>
</svg>
